<svg xmlns="http://www.w3.org/2000/svg" viewBox="0 0 64 64" width="64" height="64" role="img" aria-label="backpack" fill="none">
          <path d="M28 17 q4 -6 8 0" stroke="#38215A" stroke-width="3.5" stroke-linecap="round"></path>
          <path d="M25 18 C23 26 23 32 25 38 M39 18 C41 26 41 32 39 38" stroke="#38215A" stroke-width="3" stroke-linecap="round"></path>
          <rect x="18" y="18" width="28" height="34" rx="10" fill="#5B3A7E"></rect>
          <path d="M24 17 a8 8 0 0 1 16 0" stroke="#CBA24E" stroke-width="2.4" fill="none"></path>
          <path d="M22 35 H42 V47 a4 4 0 0 1 -4 4 H26 a4 4 0 0 1 -4 -4 Z" fill="#38215A"></path>
          <circle cx="32" cy="40.5" r="2.2" fill="#CBA24E"></circle>
        </svg>