<svg xmlns="http://www.w3.org/2000/svg" viewBox="0 0 64 64" width="64" height="64" role="img" aria-label="gloves" fill="none">
          <path d="M22 33 q-6 -1 -7 4.5 q-1 5.5 6 4.5 Z" fill="#38215A"></path>
          <rect x="22" y="30" width="20" height="13" rx="2" fill="#5B3A7E"></rect>
          <path d="M22 41 h20 v0 a5 5 0 0 1 -5 5 H27 a5 5 0 0 1 -5 -5 Z" fill="#5B3A7E"></path>
          <rect x="22.5" y="19" width="4.6" height="16" rx="2.3" fill="#5B3A7E"></rect>
          <rect x="27.8" y="15" width="4.6" height="20" rx="2.3" fill="#5B3A7E"></rect>
          <rect x="33.1" y="17" width="4.6" height="18" rx="2.3" fill="#5B3A7E"></rect>
          <rect x="38.4" y="21" width="4.6" height="14" rx="2.3" fill="#5B3A7E"></rect>
          <rect x="20.5" y="45" width="23" height="7" rx="3" fill="#CBA24E"></rect>
        </svg>